<svg width="48" height="48" viewBox="0 0 48 48" fill="none" xmlns="http://www.w3.org/2000/svg">
<path d="M15.163 40.0002H8.52858V18.6355H15.163V40.0002ZM11.8422 15.7211C9.72075 15.7211 8 13.9639 8 11.8425C8 9.72047 9.72022 8.00024 11.8422 8.00024C13.9642 8.00024 15.6845 9.72047 15.6845 11.8425C15.6845 13.9639 13.963 15.7211 11.8422 15.7211ZM39.9936 40.0002H33.3734V29.6C33.3734 27.1214 33.3234 23.9427 29.9241 23.9427C26.4747 23.9427 25.9461 26.6357 25.9461 29.4214V40.0002H19.3188V18.6355H25.6818V21.5498H25.7747C26.6604 19.8712 28.824 18.0998 32.052 18.0998C38.7664 18.0998 40.0007 22.5213 40.0007 28.2643V40.0002H39.9936Z" fill="#2867B2"/>
</svg>
